<svg width="147" height="46" viewBox="0 0 147 46" fill="none" xmlns="http://www.w3.org/2000/svg">
<path d="M30.7473 38.269C44.7116 24.9383 24.7447 23.4012 22.0021 13.7871C10.0997 30.2095 31.1816 28.6443 30.7473 38.269Z" fill="url(#paint0_linear_80_3364)"/>
<path d="M31.7111 12.008C31.7111 15.1407 30.4615 17.9519 28.4969 20.0895C29.815 18.3274 30.5878 16.1852 30.5878 13.875C30.5878 7.86341 25.3549 2.99059 18.8991 2.99059C17.9735 2.99059 17.0737 3.09093 16.2105 3.28022C16.2089 3.28022 16.2082 3.28022 16.2066 3.28022C15.6438 3.40337 15.0962 3.56529 14.5684 3.76142C11.3556 4.95568 9.03485 7.22296 7.49805 10.4368C9.01121 4.52903 13.5651 0 19.6977 0C26.3331 0 31.7111 5.37607 31.7111 12.008Z" fill="url(#paint1_linear_80_3364)"/>
<path d="M30.5873 13.8746C30.5873 16.1849 29.8145 18.3271 28.4964 20.0892C25.9606 18.026 23.5618 15.7865 22.7685 12.8484C23.313 11.9042 23.6241 10.8088 23.6241 9.64114C23.6241 6.08725 20.7423 3.20689 17.1865 3.20689C16.8549 3.20689 16.5286 3.23197 16.21 3.27987C17.0732 3.09058 17.973 2.99023 18.8986 2.99023C25.3545 2.99023 30.5873 7.86305 30.5873 13.8746Z" fill="url(#paint2_linear_80_3364)"/>
<path d="M29.4979 37.8263C29.6723 38.747 29.2388 39.6523 28.5135 40.2457C24.9433 43.1673 17.0658 47.5819 8.26328 43.8644C-5.04769 37.1017 -0.430077 15.1673 9.1373 5.6748C7.24486 8.37047 2.18318 19.6158 5.98229 30.5603C8.93391 37.5027 18.2533 38.7129 24.3981 31.8178C24.4278 31.7844 24.4783 31.7773 24.5153 31.8022C26.9196 33.4193 29.006 35.2302 29.4979 37.8263Z" fill="url(#paint3_linear_80_3364)"/>
<path d="M57.0156 22.6434H50.0623C49.236 22.6434 48.5305 22.3818 47.9461 21.8584C47.3616 21.3351 47.0693 20.7011 47.0693 19.9564V2.68702C47.0693 1.92217 47.3616 1.28816 47.9461 0.784972C48.5305 0.261657 49.236 0 50.0623 0H56.3203C58.3357 0 60.0187 0.603824 61.369 1.81147C62.7395 2.99899 63.4248 4.53875 63.4248 6.43073C63.4248 7.31634 63.2031 8.18182 62.7597 9.02717C62.3163 9.8524 61.7217 10.5468 60.976 11.1104C63.0721 12.3583 64.1201 14.0691 64.1201 16.2429C64.1201 18.1349 63.4349 19.6746 62.0643 20.8621C60.714 22.0497 59.0311 22.6434 57.0156 22.6434ZM51.8762 18.5072H56.6226C57.3683 18.5072 57.9931 18.2657 58.497 17.7826C59.021 17.2794 59.283 16.6756 59.283 15.9712C59.283 15.2466 59.021 14.6427 58.497 14.1597C57.9931 13.6565 57.3683 13.4049 56.6226 13.4049H51.8762V18.5072ZM51.8762 9.23851H55.9273C56.6932 9.23851 57.328 8.99698 57.8319 8.51392C58.3357 8.03086 58.5877 7.42704 58.5877 6.70245C58.5877 5.97786 58.3357 5.37404 57.8319 4.89098C57.328 4.38779 56.6932 4.1362 55.9273 4.1362H51.8762V9.23851Z" fill="#0E0D35"/>
<path d="M67.1168 22.6434C67.0184 22.6434 66.9385 22.5636 66.9385 22.4651V0.178294C66.9385 0.0798251 67.0184 0 67.1168 0H71.7787C71.8772 0 71.957 0.0798252 71.957 0.178295V9.08756H74.9197L80.4684 0.168229C80.5335 0.0636081 80.648 0 80.7712 0H85.6963C85.8357 0 85.9212 0.152708 85.8483 0.271507L79.1824 11.1406L86.0309 22.3723C86.1034 22.4911 86.0179 22.6434 85.8787 22.6434H80.5624C80.4377 22.6434 80.322 22.5782 80.2574 22.4715L74.8593 13.5559H71.957V22.4651C71.957 22.5636 71.8772 22.6434 71.7787 22.6434H67.1168Z" fill="#0E0D35"/>
<path d="M88.1965 22.6434C88.098 22.6434 88.0182 22.5636 88.0182 22.4651V2.68702C88.0182 1.9423 88.3104 1.30829 88.8949 0.784972C89.4794 0.261657 90.1848 0 91.0111 0H96.4226C98.7203 0 100.665 0.764845 102.257 2.29453C103.85 3.82422 104.646 5.68601 104.646 7.87991C104.646 10.0537 103.85 11.9054 102.257 13.4351C100.665 14.9648 98.7203 15.7296 96.4226 15.7296H92.9157V22.4651C92.9157 22.5636 92.8359 22.6434 92.7374 22.6434H88.1965ZM92.9157 11.5632H96.211C97.2389 11.5632 98.1055 11.211 98.811 10.5065C99.5164 9.78195 99.8691 8.90641 99.8691 7.87991C99.8691 6.85341 99.5164 5.97786 98.811 5.25327C98.1055 4.52868 97.2389 4.16639 96.211 4.16639H92.9157V11.5632Z" fill="#0E0D35"/>
<path d="M107.68 22.6434C107.582 22.6434 107.502 22.5636 107.502 22.4651V0.178294C107.502 0.0798251 107.582 0 107.68 0H111.949C112.048 0 112.128 0.0798252 112.128 0.178295V22.4651C112.128 22.5636 112.048 22.6434 111.949 22.6434H107.68Z" fill="#0E0D35"/>
<path d="M127.805 22.6434H122.393C120.257 22.6434 118.564 22.0396 117.314 20.8319C116.064 19.6243 115.44 17.9738 115.44 15.8806V4.58621C115.44 4.48774 115.52 4.40792 115.618 4.40792H119.887C119.985 4.40792 120.065 4.48774 120.065 4.58621V15.4881C120.065 16.414 120.317 17.1587 120.821 17.7222C121.325 18.2657 122.03 18.5374 122.937 18.5374H125.991V4.58621C125.991 4.48774 126.07 4.40792 126.169 4.40792H130.438C130.536 4.40792 130.616 4.48774 130.616 4.58621V20.1677C130.616 20.8521 130.334 21.4358 129.77 21.9188C129.225 22.4019 128.57 22.6434 127.805 22.6434Z" fill="#0E0D35"/>
<path d="M133.918 22.6434C133.82 22.6434 133.74 22.5636 133.74 22.4651V18.9572C133.74 18.8588 133.82 18.7789 133.918 18.7789H140.421C140.965 18.7789 141.409 18.6179 141.751 18.2959C142.094 17.9738 142.265 17.5713 142.265 17.0882C142.265 16.0819 141.439 15.5183 139.786 15.3975C137.61 15.2768 135.967 14.7836 134.858 13.9181C133.77 13.0527 133.226 11.7243 133.226 9.93291C133.226 8.40322 133.79 7.105 134.919 6.03824C136.068 4.95136 137.489 4.40792 139.182 4.40792H146.108C146.206 4.40792 146.286 4.48774 146.286 4.58621V8.0941C146.286 8.19257 146.206 8.27239 146.108 8.27239H139.575C139.051 8.27239 138.617 8.43341 138.275 8.75545C137.932 9.05736 137.761 9.43979 137.761 9.90272C137.761 10.9695 138.587 11.533 140.24 11.5934C142.396 11.7142 144.029 12.2174 145.137 13.103C146.266 13.9685 146.83 15.2969 146.83 17.0882C146.83 18.6179 146.246 19.9262 145.077 21.0131C143.928 22.1 142.517 22.6434 140.844 22.6434H133.918Z" fill="#0E0D35"/>
<path d="M51.0477 45.4008C50.2865 45.4008 49.6014 45.2703 48.9925 45.0093C48.3835 44.7375 47.9051 44.3569 47.5571 43.8676C47.2091 43.3783 47.0352 42.8074 47.0352 42.1549H49.0251C49.0686 42.6443 49.2589 43.0466 49.596 43.3619C49.9439 43.6773 50.4278 43.835 51.0477 43.835C51.6892 43.835 52.1894 43.6827 52.5483 43.3783C52.9071 43.0629 53.0865 42.6606 53.0865 42.1712C53.0865 41.7906 52.9723 41.4807 52.744 41.2415C52.5265 41.0023 52.2492 40.8174 51.9121 40.6869C51.5859 40.5565 51.1292 40.4151 50.542 40.2629C49.8026 40.0671 49.1991 39.8714 48.7315 39.6757C48.2748 39.4691 47.8833 39.1537 47.5571 38.7296C47.2309 38.3055 47.0678 37.7401 47.0678 37.0333C47.0678 36.3808 47.2309 35.81 47.5571 35.3206C47.8833 34.8313 48.34 34.4562 48.9272 34.1952C49.5144 33.9342 50.194 33.8037 50.9661 33.8037C52.0644 33.8037 52.9615 34.081 53.6574 34.6356C54.3642 35.1793 54.7557 35.9296 54.8318 36.8865H52.7766C52.744 36.4733 52.5483 36.1199 52.1894 35.8263C51.8306 35.5327 51.3576 35.3859 50.7704 35.3859C50.2375 35.3859 49.8026 35.5218 49.4655 35.7936C49.1284 36.0655 48.9599 36.457 48.9599 36.968C48.9599 37.316 49.0632 37.6042 49.2698 37.8325C49.4872 38.05 49.7591 38.224 50.0853 38.3545C50.4115 38.485 50.8574 38.6263 51.4228 38.7786C52.1731 38.9852 52.7821 39.1918 53.2496 39.3984C53.7281 39.605 54.1304 39.9258 54.4566 40.3607C54.7937 40.7848 54.9623 41.3557 54.9623 42.0734C54.9623 42.6497 54.8046 43.1934 54.4893 43.7045C54.1848 44.2155 53.7335 44.6288 53.1355 44.9441C52.5483 45.2486 51.8523 45.4008 51.0477 45.4008Z" fill="#0E0D35"/>
<path d="M80.8918 33.9505V35.4674H76.08V38.8112H79.8315V40.3281H76.08V45.2866H74.2206V33.9505H80.8918Z" fill="#0E0D35"/>
<path d="M92.0753 33.9505V35.4674H89.0578V45.2866H87.1984V35.4674H84.1645V33.9505H92.0753Z" fill="#0E0D35"/>
<path d="M110.857 33.9505L107.497 45.2866H105.392L103.011 36.7071L100.483 45.2866L98.3951 45.3029L95.1818 33.9505H97.1555L99.5042 43.1825L102.049 33.9505H104.137L106.502 43.1336L108.867 33.9505H110.857Z" fill="#0E0D35"/>
<path d="M121.361 42.9705H116.615L115.799 45.2866H113.858L117.92 33.9342H120.073L124.134 45.2866H122.177L121.361 42.9705ZM120.839 41.4536L118.996 36.1851L117.137 41.4536H120.839Z" fill="#0E0D35"/>
<path d="M133.925 45.2866L131.315 40.7522H129.896V45.2866H128.037V33.9505H131.951C132.821 33.9505 133.555 34.1027 134.153 34.4072C134.762 34.7117 135.214 35.1195 135.507 35.6305C135.812 36.1416 135.964 36.7125 135.964 37.3432C135.964 38.0826 135.746 38.7568 135.312 39.3658C134.887 39.9638 134.23 40.3716 133.338 40.5891L136.143 45.2866H133.925ZM129.896 39.2679H131.951C132.647 39.2679 133.169 39.0939 133.517 38.7459C133.876 38.398 134.056 37.9304 134.056 37.3432C134.056 36.756 133.882 36.2993 133.534 35.9731C133.186 35.636 132.658 35.4674 131.951 35.4674H129.896V39.2679Z" fill="#0E0D35"/>
<path d="M142.339 35.4511V38.7786H146.254V40.2955H142.339V43.7697H146.743V45.2866H140.479V33.9342H146.743V35.4511H142.339Z" fill="#0E0D35"/>
<path d="M64.0035 45.2945C62.9731 45.2945 62.0223 45.0555 61.1512 44.5774C60.2907 44.0888 59.6055 43.4142 59.0956 42.5537C58.5963 41.6826 58.3467 40.7053 58.3467 39.6217C58.3467 38.5381 58.5963 37.5661 59.0956 36.7056C59.6055 35.8452 60.2907 35.1759 61.1512 34.6978C62.0223 34.2092 62.9731 33.9648 64.0035 33.9648C65.0446 33.9648 65.9954 34.2092 66.8559 34.6978C67.727 35.1759 68.4122 35.8452 68.9115 36.7056C69.4108 37.5661 69.6604 38.5381 69.6604 39.6217C69.6604 40.7053 69.4108 41.6826 68.9115 42.5537C68.4122 43.4142 67.727 44.0888 66.8559 44.5774C65.9954 45.0555 65.0446 45.2945 64.0035 45.2945ZM64.0035 43.717C64.7365 43.717 65.3899 43.5523 65.9635 43.223C66.5372 42.883 66.9834 42.405 67.3021 41.7888C67.6314 41.1621 67.796 40.4397 67.796 39.6217C67.796 38.8037 67.6314 38.0867 67.3021 37.4705C66.9834 36.8544 66.5372 36.3816 65.9635 36.0523C65.3899 35.723 64.7365 35.5583 64.0035 35.5583C63.2705 35.5583 62.6172 35.723 62.0436 36.0523C61.4699 36.3816 61.0184 36.8544 60.6891 37.4705C60.3704 38.0867 60.2111 38.8037 60.2111 39.6217C60.2111 40.4397 60.3704 41.1621 60.6891 41.7888C61.0184 42.405 61.4699 42.883 62.0436 43.223C62.6172 43.5523 63.2705 43.717 64.0035 43.717Z" fill="#0E0D35"/>
<defs>
<linearGradient id="paint0_linear_80_3364" x1="35.7902" y1="38.269" x2="8.64416" y2="30.3623" gradientUnits="userSpaceOnUse">
<stop stop-color="#0042ED"/>
<stop offset="1" stop-color="#0CB29C"/>
</linearGradient>
<linearGradient id="paint1_linear_80_3364" x1="31.8946" y1="20.1299" x2="10.9189" y2="11.3891" gradientUnits="userSpaceOnUse">
<stop stop-color="#3C00E8"/>
<stop offset="1" stop-color="#0BA5A9"/>
</linearGradient>
<linearGradient id="paint2_linear_80_3364" x1="30.5873" y1="20.0892" x2="12.6313" y2="14.5121" gradientUnits="userSpaceOnUse">
<stop stop-color="#005EE8"/>
<stop offset="1" stop-color="#0CB29C"/>
</linearGradient>
<linearGradient id="paint3_linear_80_3364" x1="29.8317" y1="45.2866" x2="-9.88671" y2="42.5801" gradientUnits="userSpaceOnUse">
<stop stop-color="#005EE8"/>
<stop offset="1" stop-color="#0CB29C"/>
</linearGradient>
</defs>
</svg>
